Coordinates
version=1
nRows=8
nColumns=63
inDegrees=yes

Units are S.I. units (second, meters, Newtons, ...)
If the header above contains a line with 'inDegrees', this indicates whether rotational values are in degrees (yes) or radians (no).

endheader
time	pelvis_tilt	pelvis_list	pelvis_rotation	pelvis_tx	pelvis_ty	pelvis_tz	hip_flexion_r	hip_adduction_r	hip_rotation_r	knee_angle_r	knee_angle_r_beta	ankle_angle_r	subtalar_angle_r	mtp_angle_r	hip_flexion_l	hip_adduction_l	hip_rotation_l	knee_angle_l	knee_angle_l_beta	ankle_angle_l	subtalar_angle_l	mtp_angle_l	L5_S1_Flex_Ext	L5_S1_Lat_Bending	L5_S1_axial_rotation	L4_L5_Flex_Ext	L4_L5_Lat_Bending	L4_L5_axial_rotation	L3_L4_Flex_Ext	L3_L4_Lat_Bending	L3_L4_axial_rotation	L2_L3_Flex_Ext	L2_L3_Lat_Bending	L2_L3_axial_rotation	L1_L2_Flex_Ext	L1_L2_Lat_Bending	L1_L2_axial_rotation	L1_T12_Flex_Ext	L1_T12_Lat_Bending	L1_T12_axial_rotation	Abs_r3	Abs_r2	Abs_r1	Abs_t1	Abs_t2	neck_flexion	neck_bending	neck_rotation	arm_flex_r	arm_add_r	arm_rot_r	elbow_flex_r	pro_sup_r	wrist_flex_r	wrist_dev_r	arm_flex_l	arm_add_l	arm_rot_l	elbow_flex_l	pro_sup_l	wrist_flex_l	wrist_dev_l
      3.94444444	      4.65752514	     -2.74515779	     85.18006881	      0.19588869	      0.77022104	      0.78766232	     12.04575793	      4.73435787	      2.37344095	     24.23238055	      0.42293483	     36.07715629	     -6.41911619	      0.00000000	      6.50986195	     -3.93492245	    -12.84926377	     14.63525814	      0.25543344	     41.35238378	     11.16807410	      0.00000000	     -0.03790444	      0.84879472	      0.58522266	     -0.07039234	      1.12889698	      0.62179907	     -0.06227321	      2.06375948	      0.62179907	     -0.04332099	      2.06375948	      0.51206983	     -0.03519806	      1.73086219	      0.47549341	     -0.02165860	      1.31478302	      0.43891699	     -0.27074763	      9.60173562	      3.25483286	      0.00000000	      0.00000000	     17.99997542	     -0.94529234	     10.11086361	    -18.80553850	    -19.31862772	     -1.37831854	     45.31576462	     79.88737231	    -11.77522000	     -8.32365333	    -14.89198166	      6.84099525	    -50.14050638	    122.24387293	     59.87467896	     16.15450329	     -3.57844913
      3.96296296	      4.76705263	     -2.29965355	     85.76950293	      0.19510064	      0.77206649	      0.78656437	     11.17930071	      4.70403011	      1.87001001	     23.71998283	      0.41399180	     36.00655404	     -6.18726708	      0.00000000	      5.85352935	     -3.91266505	    -12.67508783	     14.39145847	      0.25117833	     40.83259830	     11.38748926	      0.00000000	     -0.05818982	      0.84961493	      0.68877116	     -0.10806431	      1.12998786	      0.73181936	     -0.09560005	      2.06575374	      0.73181936	     -0.06650514	      2.06575374	      0.60267477	     -0.05403506	      1.73253476	      0.55962657	     -0.03324966	      1.31605353	      0.51657837	     -0.41564405	      9.61101400	      3.83073858	      0.00000000	      0.00000000	     16.59994436	     -1.36967343	      8.99490325	    -20.24802961	    -19.06441409	     -3.52208719	     49.90924392	     80.89522489	    -12.55828034	     -9.24371063	    -15.21914657	      7.11459639	    -48.82654163	    122.33762012	     59.00266582	     16.69746790	     -4.09683427
      3.98148148	      4.65032236	     -1.83847311	     86.41172868	      0.19472745	      0.77346320	      0.78539900	     10.40913754	      4.44967985	      1.29432303	     23.46328372	      0.40951155	     36.16339021	     -5.93142919	      0.00000000	      5.29403881	     -3.70560842	    -12.46197769	     14.26184056	      0.24891608	     40.47241124	     11.70444969	      0.00000000	     -0.07864901	      0.81392770	      0.78416090	     -0.14605908	      1.08252384	      0.83317096	     -0.12921246	      1.97898381	      0.83317096	     -0.08988796	      1.97898381	      0.68614079	     -0.07303347	      1.65976136	      0.63713073	     -0.04494005	      1.26077400	      0.58812068	     -0.56178204	      9.20731291	      4.36126769	      0.00000000	      0.00000000	     15.36658485	     -1.53602329	      7.47277286	    -21.76716312	    -18.27655842	     -6.02702794	     54.20630074	     83.46899294	    -12.72097316	    -10.22212120	    -15.99891331	      5.89996706	    -46.86644995	    123.05721436	     59.31019879	     16.36699178	     -4.00348765
      4.00000000	      4.37275282	     -1.41994179	     87.10858672	      0.19484129	      0.77448031	      0.78362243	      9.66364088	      4.12195572	      1.01731033	     23.23853489	      0.40558895	     36.33403850	     -6.20162766	      0.00000000	      4.79426060	     -3.38602653	    -12.22263722	     14.17527217	      0.24740517	     40.24911003	     12.08063606	      0.00000000	     -0.09224848	      0.75132771	      0.75071028	     -0.17131465	      0.99926586	      0.79762967	     -0.15155502	      1.82677820	      0.79762967	     -0.10543079	      1.82677820	      0.65687150	     -0.08566194	      1.53210747	      0.60995210	     -0.05271078	      1.16380663	      0.56303271	     -0.65892165	      8.49916936	      4.17522537	      0.00000000	      0.00000000	     14.12968916	     -0.93149132	      6.90203327	    -22.89755088	    -17.93428348	     -6.36980818	     57.91120411	     84.20323026	    -12.56565014	    -11.98871258	    -17.48847512	      3.71199710	    -45.47835786	    124.43618285	     60.16699825	     16.30192065	     -3.45063513
      4.01851852	      4.04226434	     -1.00924147	     88.20834612	      0.19469904	      0.77516723	      0.78180353	      8.90499226	      3.71004546	      0.34450272	     22.99621656	      0.40135969	     36.39832450	     -6.60481408	      0.00000000	      4.44260832	     -3.05182859	    -11.74223083	     14.23140583	      0.24838489	     40.12646233	     12.69974507	      0.00000000	     -0.09988515	      0.67536327	      0.72740285	     -0.18549671	      0.89823315	      0.77286553	     -0.16410131	      1.64207826	      0.77286553	     -0.11415874	      1.64207826	      0.63647749	     -0.09275335	      1.37720079	      0.59101482	     -0.05707437	      1.04613771	      0.54555214	     -0.71346964	      7.63984442	      4.04559644	      0.00000000	      0.00000000	     12.84984273	     -0.09643389	      5.79881611	    -24.45461579	    -16.90579695	     -7.47438322	     61.30687514	     85.45240702	    -12.68343609	    -14.62439829	    -18.84881011	      0.62216651	    -43.46736168	    126.51297655	     62.04337381	     14.58009830	     -2.47857020
      4.03703704	      3.69455289	     -0.52135553	     89.25401885	      0.19438988	      0.77552087	      0.78007229	      8.19255472	      3.24511456	     -0.45237475	     23.04638161	      0.40223524	     36.67129899	     -6.75982373	      0.00000000	      4.15700956	     -2.73785743	    -11.23817413	     14.62890948	      0.25532264	     40.35377956	     13.18029681	      0.00000000	     -0.12838856	      0.59090474	      0.67682512	     -0.23843040	      0.78590331	      0.71912669	     -0.21092957	      1.43672579	      0.71912669	     -0.14673529	      1.43672579	      0.59222198	     -0.11922162	      1.20497295	      0.54992041	     -0.07336122	      0.91531145	      0.50761884	     -0.91706666	      6.68443262	      3.76429829	      0.00000000	      0.00000000	     11.64773900	      0.77404350	      4.05474758	    -25.84866824	    -15.76316495	     -8.41530260	     64.45435102	     86.77917968	    -12.64224016	    -17.40956234	    -20.21429925	     -2.21223503	    -41.36230078	    129.88087829	     65.45707770	      8.16907688	     -2.16936990
      4.05555556	      3.40156389	     -0.11608582	     89.93558347	      0.19401464	      0.77569610	      0.77841864	      7.61954627	      2.84500270	     -0.94988883	     23.15519215	      0.40413434	     36.86266665	     -6.74402147	      0.00000000	      3.91053080	     -2.42470549	    -10.59825801	     14.95482585	      0.26101095	     40.66745185	     13.09532705	      0.00000000	     -0.15029421	      0.53350013	      0.57211480	     -0.27911138	      0.70955518	      0.60787197	     -0.24691836	      1.29715222	      0.60787197	     -0.17177125	      1.29715222	      0.50060045	     -0.13956320	      1.08791347	      0.46484327	     -0.08587811	      0.82639170	      0.42908610	     -1.07353651	      6.03506019	      3.18193087	      0.00000000	      0.00000000	     10.58505147	      1.50418982	      3.92717963	    -26.95696884	    -15.82311726	     -7.57443759	     68.18302784	     86.96777213	    -12.39838385	    -17.79266532	    -21.64424967	     -4.71935002	    -39.55270829	    133.11372202	     69.39568591	      0.81437509	     -4.78127615
      4.07407407	      3.25548486	      0.31232447	     90.66289749	      0.19334233	      0.77597625	      0.77631271	      6.98869368	      2.63787792	     -1.37494014	     23.21187960	      0.40512372	     37.01592730	     -7.01215929	      0.00000000	      3.70846936	     -2.24662096	     -9.55951937	     15.40260727	      0.26882621	     41.12496838	     12.87819117	      0.00000000	     -0.16856114	      0.50499527	      0.50950834	     -0.31303489	      0.67164371	      0.54135262	     -0.27692910	      1.22784551	      0.54135262	     -0.19264853	      1.22784551	      0.44581980	     -0.15652587	      1.02978636	      0.41397553	     -0.09631583	      0.78223768	      0.38213126	     -1.20401536	      5.71260754	      2.83373256	      0.00000000	      0.00000000	      9.47435250	      1.80516744	      3.81126765	    -28.14678822	    -15.78408271	     -7.12540468	     71.81660630	     87.15127207	    -12.43096285	    -17.61399003	    -22.11292268	     -6.50543776	    -38.41484735	    135.70417294	     72.99900014	     -3.56320429	     -7.79421247
